<?xml version="1.0" standalone="no"?>
<!DOCTYPE svg PUBLIC "-//W3C//DTD SVG 20010904//EN"
 "http://www.w3.org/TR/2001/REC-SVG-20010904/DTD/svg10.dtd">
<svg version="1.0" xmlns="http://www.w3.org/2000/svg"
 width="260.000000pt" height="260.000000pt" viewBox="0 0 260.000000 260.000000"
 preserveAspectRatio="xMidYMid meet">
<metadata>
Created by potrace 1.11, written by Peter Selinger 2001-2013
</metadata>
<g transform="translate(0.000000,260.000000) scale(0.100000,-0.100000)"
fill="#000000" stroke="none">
<path d="M1240 1945 c-11 -13 -10 -14 4 -9 9 3 16 10 16 15 0 13 -6 11 -20 -6z"/>
<path d="M1238 1893 c-19 -5 -24 -38 -8 -48 6 -3 10 -1 10 5 0 6 5 8 11 4 7
-4 8 -9 1 -13 -26 -16 -12 -81 19 -81 10 0 19 -4 19 -10 0 -5 -6 -7 -14 -4
-11 4 -13 -7 -12 -51 1 -31 -2 -59 -6 -61 -12 -8 14 -54 31 -54 14 0 14 -2 1
-10 -8 -5 -10 -10 -4 -10 7 0 14 -9 17 -20 3 -11 10 -20 16 -20 14 0 15 37 1
45 -15 9 -12 25 4 25 14 0 26 21 26 44 0 7 -9 22 -21 35 -13 14 -23 41 -26 77
-6 52 -8 55 -30 51 -13 -2 -26 0 -29 4 -3 5 8 12 23 15 26 5 29 11 32 45 2 35
-1 39 -21 38 -13 -1 -31 -3 -40 -6z m73 -227 c15 9 35 -44 21 -58 -9 -9 -12
-6 -12 15 0 22 -4 27 -25 27 -22 0 -24 2 -13 14 7 8 15 10 16 5 2 -5 8 -7 13
-3z m-31 -36 c0 -5 -5 -10 -11 -10 -5 0 -7 5 -4 10 3 6 8 10 11 10 2 0 4 -4 4
-10z"/>
<path d="M1432 1843 c-6 -2 -10 -9 -6 -14 3 -5 0 -9 -5 -9 -6 0 -11 5 -11 11
0 6 -8 9 -17 7 -10 -2 -18 -10 -18 -18 0 -11 9 -14 35 -12 36 4 60 17 60 33 0
10 -17 11 -38 2z"/>
<path d="M1549 1833 c-1 -5 -1 -11 0 -15 2 -13 -27 -9 -31 3 -3 8 -10 6 -20
-5 -10 -9 -19 -12 -23 -6 -3 5 -24 -1 -49 -15 -30 -17 -46 -21 -54 -13 -11 11
-32 3 -32 -13 0 -14 52 -11 83 6 35 18 45 2 22 -41 -8 -16 -15 -37 -15 -46 0
-9 -5 -20 -11 -24 -6 -3 -9 -17 -6 -29 3 -17 0 -23 -13 -22 -12 1 -15 8 -12
25 3 16 1 23 -7 21 -7 -3 -12 -8 -12 -12 1 -4 1 -18 1 -31 0 -22 3 -24 48 -20
26 2 50 3 54 4 8 0 3 59 -6 67 -9 10 -26 -8 -26 -28 0 -11 -4 -17 -10 -14 -19
12 -10 35 21 51 17 8 28 11 25 5 -4 -6 -4 -11 1 -11 4 0 15 18 25 40 9 22 13
39 10 39 -19 -3 -30 3 -36 19 -3 9 -9 24 -12 32 -4 8 2 4 14 -10 20 -24 21
-24 40 -6 23 20 42 14 42 -12 0 -30 -35 -102 -52 -107 -9 -3 -19 -13 -22 -21
-3 -8 -2 -13 2 -10 4 2 14 1 22 -5 13 -7 12 -9 -2 -9 -10 0 -18 -4 -18 -9 0
-5 15 -9 33 -8 29 2 33 6 46 47 8 25 18 47 22 50 4 3 11 25 15 49 6 35 4 43
-7 39 -7 -2 -16 -15 -20 -29 -6 -20 -7 -17 -8 15 -1 32 2 37 16 32 15 -6 15
-4 -2 14 -18 20 -34 26 -36 13z m4 -177 c-10 -13 -20 -22 -22 -20 -4 4 29 44
36 44 2 0 -4 -11 -14 -24z"/>
<path d="M1323 1813 c-7 -2 -13 -19 -12 -36 l1 -32 11 28 c9 22 16 28 34 24
19 -3 21 -2 12 9 -12 14 -24 16 -46 7z"/>
<path d="M1139 1795 c-1 -3 -2 -10 -3 -17 0 -6 -7 -13 -15 -16 -8 -3 -11 0 -7
6 10 16 -20 22 -41 7 -16 -12 -16 -14 -2 -20 9 -3 20 -5 25 -4 21 4 35 -2 29
-11 -3 -5 1 -10 11 -10 13 0 14 3 4 15 -11 13 -8 15 15 15 20 0 26 -4 21 -15
-5 -13 -2 -14 17 -4 l22 12 -27 9 c-17 6 -25 14 -21 24 3 8 -1 14 -11 14 -9 0
-17 -2 -17 -5z"/>
<path d="M1187 1794 c-10 -11 3 -24 23 -24 10 0 22 -9 25 -21 4 -11 9 -18 12
-16 2 3 -3 19 -12 36 -15 29 -34 39 -48 25z"/>
<path d="M1017 1727 c-4 -11 23 -46 30 -39 2 1 6 2 11 2 4 0 1 -4 -7 -9 -10
-6 -4 -15 23 -36 38 -29 46 -49 22 -58 -20 -8 -99 79 -92 101 8 24 -9 46 -28
39 -20 -8 -21 -27 -1 -27 8 0 15 -7 15 -16 0 -10 -6 -14 -15 -10 -33 12 -13
-33 42 -93 39 -43 62 -61 74 -58 10 3 20 -1 23 -8 3 -9 -2 -11 -15 -8 -14 4
-18 1 -14 -9 6 -16 -21 -45 -32 -34 -4 4 -1 12 7 17 13 9 13 10 0 6 -22 -6
-24 -34 -3 -56 l19 -21 53 21 c59 22 143 46 209 60 35 7 49 5 70 -9 25 -15 26
-15 14 0 -12 15 -11 17 5 17 10 0 45 4 78 8 l60 9 -45 6 c-76 12 -309 -30
-383 -68 -33 -17 -40 -15 -31 10 4 10 13 15 21 12 22 -9 29 25 8 40 -10 8 -15
14 -10 14 5 0 4 5 -3 12 -17 17 -15 24 8 25 11 1 20 -3 20 -8 0 -6 -4 -7 -10
-4 -5 3 -10 2 -10 -3 0 -6 12 -13 26 -16 21 -6 24 -9 14 -21 -10 -12 -9 -15 8
-15 31 0 35 16 10 35 -23 16 -23 16 7 10 l30 -6 -27 18 c-16 10 -28 23 -28 30
0 22 -23 26 -37 7 -13 -18 -13 -17 -10 5 5 33 33 35 57 4 12 -15 20 -20 20
-12 0 8 -20 37 -44 64 -24 28 -46 59 -49 70 -4 19 -5 19 -6 1 0 -11 7 -29 16
-40 10 -12 1 -6 -18 13 -37 36 -74 49 -82 28z m40 -153 c-3 -3 -12 -4 -19 -1
-8 3 -5 6 6 6 11 1 17 -2 13 -5z"/>
<path d="M1213 1624 c-4 -10 -2 -19 4 -21 6 -2 9 -13 6 -23 -6 -24 9 -26 27
-5 9 10 9 15 1 15 -6 0 -11 9 -11 19 0 27 -19 37 -27 15z"/>
<path d="M1386 1575 c-17 -17 -12 -42 7 -42 7 0 13 13 12 29 0 33 1 32 -19 13z"/>
<path d="M1431 1583 c12 -3 15 -11 11 -25 -3 -15 -1 -19 9 -16 8 3 13 13 13
22 -1 9 4 16 11 16 7 0 12 -8 11 -17 -1 -12 6 -18 21 -18 11 0 25 -3 29 -7 15
-15 20 -7 16 22 -2 17 -10 30 -19 30 -9 0 -11 -5 -7 -12 6 -10 5 -10 -7 -1 -8
6 -35 11 -59 11 -25 -1 -38 -3 -29 -5z"/>
<path d="M1236 1543 c-9 -23 9 -39 27 -22 11 11 12 16 1 26 -16 17 -21 16 -28
-4z"/>
<path d="M1541 1491 c-11 -7 -11 -9 0 -14 11 -4 11 -6 -1 -6 -10 -1 -8 -6 8
-17 12 -8 22 -22 22 -30 0 -8 5 -12 10 -9 6 3 10 19 10 34 0 15 5 32 12 39 9
9 5 12 -17 12 -17 0 -36 -4 -44 -9z"/>
<path d="M1040 1413 c0 -12 -6 -23 -12 -26 -7 -2 -11 -7 -8 -10 3 -3 13 1 23
8 15 11 17 17 8 32 -10 17 -10 16 -11 -4z"/>
<path d="M1602 1403 c-5 -10 -7 -24 -4 -32 3 -10 0 -11 -9 -5 -12 6 -12 5 -1
-8 7 -8 24 -15 38 -15 l25 0 -21 22 c-12 13 -18 28 -14 38 8 22 -3 22 -14 0z"/>
<path d="M1638 1400 c18 -21 15 -34 -5 -19 -10 7 -8 2 5 -13 22 -25 16 -48 -8
-33 -18 11 -11 -8 13 -34 12 -14 14 -19 5 -12 -13 9 -18 10 -18 2 0 -6 7 -14
15 -17 8 -4 15 -10 15 -16 0 -5 -6 -6 -12 -2 -9 5 -9 2 1 -9 15 -19 22 -22 19
-8 -2 5 2 9 7 10 6 1 10 -12 11 -29 1 -19 11 -39 28 -54 32 -30 35 -47 4 -20
-13 11 -10 4 7 -15 17 -19 24 -31 18 -27 -7 4 -13 3 -13 -2 0 -13 25 -33 32
-26 3 3 8 -9 10 -25 4 -24 2 -28 -8 -20 -10 9 -11 5 -5 -18 5 -15 12 -36 16
-45 5 -12 2 -20 -9 -24 -14 -5 -14 -10 -1 -42 12 -27 13 -38 4 -46 -9 -8 -10
-6 -6 7 4 11 3 16 -3 12 -5 -3 -7 0 -4 8 3 8 1 18 -4 21 -6 4 -8 -5 -5 -21 2
-16 5 -47 7 -70 1 -23 5 -45 9 -49 7 -8 12 25 8 64 -1 15 2 21 8 17 6 -3 11
-14 11 -23 0 -11 3 -13 10 -6 7 7 8 19 1 37 -8 19 -7 27 0 27 8 0 8 4 1 13 -6
7 -7 18 -2 27 6 9 10 -1 15 -31 4 -25 6 -52 5 -60 -4 -25 0 -49 8 -49 22 0
-15 244 -47 309 -11 24 -18 48 -15 52 3 5 1 9 -5 9 -9 0 -22 27 -27 59 -2 7
-16 30 -32 50 -31 39 -53 89 -33 77 7 -5 9 -1 5 8 -3 9 -11 16 -18 16 -7 0 -7
3 2 8 9 6 7 13 -10 27 -13 11 -17 13 -10 5z m73 -207 c13 -16 12 -17 -3 -4
-17 13 -22 21 -14 21 2 0 10 -8 17 -17z"/>
<path d="M1011 1354 c-41 -28 -46 -35 -67 -99 -10 -27 -27 -63 -40 -80 -45
-60 -120 -228 -121 -273 -1 -24 -5 -52 -8 -63 -4 -11 -2 -19 5 -19 6 0 8 -10
4 -24 -3 -13 -1 -27 5 -30 7 -5 11 11 11 49 0 31 4 54 9 51 5 -3 7 -16 3 -28
-3 -14 -2 -19 6 -14 7 4 12 18 12 32 0 14 4 23 9 20 5 -3 12 11 15 32 13 73
14 74 42 56 23 -16 24 -15 24 6 0 16 4 20 16 16 8 -3 25 -1 36 5 18 10 20 9
15 -5 -5 -13 -3 -14 13 -4 14 9 16 16 8 25 -7 9 -7 13 0 13 6 0 9 7 5 16 -4
12 -8 11 -17 -7 -6 -12 -18 -25 -26 -27 -13 -5 -13 -3 -1 12 12 15 12 16 -5
10 -10 -4 -25 -11 -31 -17 -7 -5 -13 -6 -13 -1 0 4 -7 -1 -15 -12 -13 -17 -14
-16 -4 16 6 19 25 48 43 63 17 16 24 25 16 21 -8 -5 -4 5 8 21 14 18 19 31 12
33 -8 3 -8 8 1 18 10 12 9 13 -5 8 -15 -6 -20 -17 -17 -37 1 -4 -3 -13 -9 -20
-6 -7 -22 -25 -35 -42 -14 -16 -25 -25 -25 -19 0 6 7 17 15 24 10 8 12 17 5
29 -10 19 2 46 21 46 7 0 14 7 16 15 4 12 3 12 -5 1 -7 -9 -12 -10 -16 -2 -7
10 5 15 29 12 6 0 10 10 10 24 0 14 -4 25 -9 25 -5 0 -1 9 10 21 10 12 18 24
17 28 -1 3 1 8 4 11 4 3 3 -1 -1 -7 -4 -8 -2 -13 6 -13 8 -1 6 -6 -6 -15 -16
-12 -17 -17 -6 -30 8 -10 9 -15 1 -15 -6 0 -11 -4 -11 -10 0 -17 19 -11 30 10
6 11 7 20 3 19 -24 -4 -25 4 -3 21 14 11 20 20 13 20 -7 0 -10 9 -8 21 3 15 0
19 -10 15 -9 -3 -12 0 -8 9 3 8 10 12 16 8 6 -4 7 -1 3 8 -4 8 1 4 10 -8 20
-27 34 -30 29 -5 -2 9 -4 21 -4 25 -1 5 -6 5 -13 1 -7 -4 -8 -3 -4 4 4 6 13 9
21 5 8 -3 15 0 15 5 0 21 -15 20 -49 -4z"/>
<path d="M1210 1304 c-11 -12 -11 -15 1 -12 8 2 13 -4 11 -14 -4 -23 19 -34
30 -14 5 9 14 14 19 10 6 -3 5 -12 -3 -22 -11 -15 -11 -15 3 -4 9 7 23 10 32
6 8 -3 18 -1 22 5 3 6 -2 11 -13 11 -10 0 -29 11 -42 25 -27 29 -42 31 -60 9z"/>
<path d="M1356 1285 c-3 -10 -4 -20 -1 -23 3 -3 5 -2 5 1 0 4 21 -5 46 -18 25
-13 41 -18 35 -11 -9 10 -7 15 7 18 11 3 19 0 18 -6 -2 -21 19 -17 22 4 3 15
8 20 20 15 16 -6 16 -5 0 11 -14 14 -22 15 -49 5 -44 -15 -70 -14 -84 5 -11
15 -12 15 -19 -1z"/>
<path d="M1212 1244 c10 -10 20 -16 22 -13 3 3 -5 11 -17 18 -21 13 -21 12 -5
-5z"/>
<path d="M1358 1233 c7 -3 16 -2 19 1 4 3 -2 6 -13 5 -11 0 -14 -3 -6 -6z"/>
<path d="M1346 1166 c-16 -43 -93 -126 -117 -126 -6 0 -24 -14 -41 -31 -17
-17 -48 -37 -70 -46 -27 -11 -37 -20 -34 -30 3 -8 6 -17 6 -19 0 -2 5 -4 10
-4 6 0 10 9 10 20 0 11 5 20 11 20 5 0 8 -4 5 -9 -3 -5 4 -11 15 -14 17 -5 24
1 32 24 6 16 18 29 27 29 9 0 22 6 30 13 8 6 6 1 -5 -12 -11 -14 -14 -21 -7
-17 7 4 20 2 28 -5 12 -10 13 -9 8 5 -4 12 0 16 16 16 12 0 18 4 15 11 -4 6
-13 8 -21 5 -8 -3 -14 -1 -14 4 0 17 5 25 13 22 4 -1 7 6 7 15 1 22 92 92 98
75 2 -7 8 -12 12 -12 5 0 2 12 -6 28 -17 33 -18 54 -2 70 8 8 8 12 1 12 -5 0
-18 -20 -27 -44z"/>
<path d="M915 1130 c-2 -3 0 -11 4 -18 5 -8 10 -6 18 7 9 14 8 18 -3 18 -8 0
-17 -3 -19 -7z"/>
<path d="M1520 1096 c0 -2 8 -10 18 -17 15 -13 16 -12 3 4 -13 16 -21 21 -21
13z"/>
<path d="M954 1059 c-20 -22 -23 -28 -8 -19 18 11 50 50 41 50 -2 0 -16 -14
-33 -31z"/>
<path d="M985 1059 c-4 -6 -5 -12 -2 -15 2 -3 7 2 10 11 7 17 1 20 -8 4z"/>
<path d="M1425 1010 c-6 -9 1 -14 17 -11 4 0 10 -10 14 -24 3 -14 10 -25 14
-25 5 0 16 -3 26 -7 16 -6 16 -5 3 15 -24 33 -67 64 -74 52z"/>
<path d="M1396 1003 c-4 -4 -28 -10 -54 -14 l-47 -6 45 -2 c43 -1 81 12 69 23
-3 4 -9 3 -13 -1z"/>
<path d="M1039 973 c-13 -16 -12 -17 4 -4 9 7 17 15 17 17 0 8 -8 3 -21 -13z"/>
<path d="M1756 967 c3 -10 9 -15 12 -12 3 3 0 11 -7 18 -10 9 -11 8 -5 -6z"/>
<path d="M1045 950 c-10 -11 -16 -22 -14 -24 2 -2 12 7 22 20 22 29 17 32 -8
4z"/>
<path d="M1630 957 c0 -2 6 -10 14 -16 11 -9 16 -9 22 1 4 7 4 10 -1 6 -4 -4
-14 -3 -22 3 -7 6 -13 9 -13 6z"/>
<path d="M1006 925 c-9 -26 -7 -32 5 -12 6 10 9 21 6 23 -2 3 -7 -2 -11 -11z"/>
<path d="M1046 914 c-4 -10 -1 -14 6 -12 15 5 23 28 10 28 -5 0 -13 -7 -16
-16z"/>
<path d="M975 889 c-4 -6 -5 -12 -2 -15 2 -3 7 2 10 11 7 17 1 20 -8 4z"/>
<path d="M920 855 c-7 -9 -8 -15 -2 -15 5 0 12 7 16 15 3 8 4 15 2 15 -2 0 -9
-7 -16 -15z"/>
<path d="M1005 859 c-4 -6 -5 -12 -2 -15 2 -3 7 2 10 11 7 17 1 20 -8 4z"/>
<path d="M1710 861 c0 -6 4 -13 10 -16 6 -3 7 1 4 9 -7 18 -14 21 -14 7z"/>
<path d="M856 847 c3 -10 9 -15 12 -12 3 3 0 11 -7 18 -10 9 -11 8 -5 -6z"/>
<path d="M926 805 c-9 -26 -7 -32 5 -12 6 10 9 21 6 23 -2 3 -7 -2 -11 -11z"/>
<path d="M1031 804 c0 -11 3 -14 6 -6 3 7 2 16 -1 19 -3 4 -6 -2 -5 -13z"/>
<path d="M1070 795 c0 -8 2 -15 4 -15 2 0 6 7 10 15 3 8 1 15 -4 15 -6 0 -10
-7 -10 -15z"/>
<path d="M1101 794 c0 -11 3 -14 6 -6 3 7 2 16 -1 19 -3 4 -6 -2 -5 -13z"/>
<path d="M1782 780 c0 -14 2 -19 5 -12 2 6 2 18 0 25 -3 6 -5 1 -5 -13z"/>
<path d="M1721 774 c0 -11 3 -14 6 -6 3 7 2 16 -1 19 -3 4 -6 -2 -5 -13z"/>
<path d="M1250 640 c0 -12 7 -20 18 -20 13 0 14 2 3 9 -7 5 -10 14 -7 20 4 6
2 11 -3 11 -6 0 -11 -9 -11 -20z"/>
<path d="M1365 630 l-30 -8 33 -1 c17 0 32 4 32 9 0 6 -1 9 -2 9 -2 -1 -16 -5
-33 -9z"/>
</g>
</svg>
